<svg xmlns="http://www.w3.org/2000/svg" viewBox="-0.5 -0.5 24 24"><defs></defs><title>audio-book-volume-high</title><path d="M11.5 20.836083333333335s2.209916666666667 -3.365666666666667 9.599625 -3.6330416666666667a0.9640833333333334 0.9640833333333334 0 0 0 0.9420416666666667 -0.9583333333333334V3.125125a0.9583333333333334 0.9583333333333334 0 0 0 -0.9765416666666666 -0.9583333333333334C13.704166666666667 2.442791666666667 11.5 5.798875000000001 11.5 5.798875000000001s-2.2041666666666666 -3.354166666666667 -9.565125 -3.6320833333333336a0.9583333333333334 0.9583333333333334 0 0 0 -0.9765416666666666 0.9583333333333334v13.120541666666668a0.9640833333333334 0.9640833333333334 0 0 0 0.9420416666666667 0.9583333333333334C9.290083333333335 17.47041666666667 11.5 20.836083333333335 11.5 20.836083333333335Z" fill="none" stroke="#ffffff" stroke-linecap="round" stroke-linejoin="round" stroke-width="1"></path><path d="M7.1875 8.856916666666669h-0.9583333333333334a0.9583333333333334 0.9583333333333334 0 0 0 -0.9583333333333334 0.9583333333333334v1.9166666666666667a0.9583333333333334 0.9583333333333334 0 0 0 0.9583333333333334 0.9583333333333334h0.9583333333333334l1.6176666666666666 1.2937500000000002A0.4791666666666667 0.4791666666666667 0 0 0 9.583333333333334 13.608333333333333V7.937875a0.4791666666666667 0.4791666666666667 0 0 0 -0.7781666666666668 -0.37470833333333337Z" fill="none" stroke="#ffffff" stroke-linecap="round" stroke-linejoin="round" stroke-width="1"></path><path d="M11.756833333333335 9.080208333333333a2.3958333333333335 2.3958333333333335 0 0 1 0 3.3877083333333338" fill="none" stroke="#ffffff" stroke-linecap="round" stroke-linejoin="round" stroke-width="1"></path><path d="M13.451166666666667 7.385875a4.791666666666667 4.791666666666667 0 0 1 0 6.776375" fill="none" stroke="#ffffff" stroke-linecap="round" stroke-linejoin="round" stroke-width="1"></path><path d="M15.141666666666667 5.691541666666667a7.1875 7.1875 0 0 1 0 10.165041666666667" fill="none" stroke="#ffffff" stroke-linecap="round" stroke-linejoin="round" stroke-width="1"></path><path d="m11.5 20.836083333333335 0 -3.354166666666667" fill="none" stroke="#ffffff" stroke-linecap="round" stroke-linejoin="round" stroke-width="1"></path></svg>