<svg xmlns="http://www.w3.org/2000/svg" viewBox="-0.5 -0.5 24 24"><defs></defs><title>audio-file-search</title><path d="M9.104166666666668 22.520833333333336h-7.666666666666667a0.9583333333333334 0.9583333333333334 0 0 1 -0.9583333333333334 -0.9583333333333334v-20.125a0.9583333333333334 0.9583333333333334 0 0 1 0.9583333333333334 -0.9583333333333334h12.739125a0.9583333333333334 0.9583333333333334 0 0 1 0.6775416666666667 0.28079166666666666L18.406708333333334 4.3125a0.9583333333333334 0.9583333333333334 0 0 1 0.28079166666666666 0.6775416666666667V9.104166666666668" fill="none" stroke="#ffffff" stroke-linecap="round" stroke-linejoin="round" stroke-width="1"></path><path d="M9.104166666666668 13.416666666666668c0 0.8941250000000001 -1.072375 1.6167083333333334 -2.3958333333333335 1.6167083333333334S4.3125 14.310791666666667 4.3125 13.416666666666668s1.072375 -1.61575 2.3958333333333335 -1.61575 2.3958333333333335 0.7225833333333334 2.3958333333333335 1.61575Z" fill="none" stroke="#ffffff" stroke-linecap="round" stroke-linejoin="round" stroke-width="1"></path><path d="M9.104166666666668 13.416666666666668V6.922041666666667a0.9583333333333334 0.9583333333333334 0 0 1 1.4375 -0.8318333333333333L12.458333333333334 7.1875" fill="none" stroke="#ffffff" stroke-linecap="round" stroke-linejoin="round" stroke-width="1"></path><path d="M11.979166666666668 16.319458333333333a4.340291666666666 4.340291666666666 0 1 0 8.680583333333333 0 4.340291666666666 4.340291666666666 0 1 0 -8.680583333333333 0" fill="none" stroke="#ffffff" stroke-linecap="round" stroke-linejoin="round" stroke-width="1"></path><path d="m22.520833333333336 22.520833333333336 -3.112666666666667 -3.112666666666667" fill="none" stroke="#ffffff" stroke-linecap="round" stroke-linejoin="round" stroke-width="1"></path></svg>