<svg xmlns="http://www.w3.org/2000/svg" viewBox="-0.5 -0.5 24 24"><defs></defs><title>playlist-repeat</title><path d="M17.729166666666668 11.260416666666668v-9.583333333333334a0.9583333333333334 0.9583333333333334 0 0 0 -0.9583333333333334 -0.9583333333333334h-15.333333333333334a0.9583333333333334 0.9583333333333334 0 0 0 -0.9583333333333334 0.9583333333333334v15.333333333333334a0.9583333333333334 0.9583333333333334 0 0 0 0.9583333333333334 0.9583333333333334h9.583333333333334" fill="none" stroke="#ffffff" stroke-linecap="round" stroke-linejoin="round" stroke-width="1"></path><path d="M10.0625 11.739583333333334a1.4375 1.4375 0 1 0 2.875 0 1.4375 1.4375 0 1 0 -2.875 0" fill="none" stroke="#ffffff" stroke-linecap="round" stroke-linejoin="round" stroke-width="1"></path><path d="M3.354166666666667 12.697916666666668a1.4375 1.4375 0 1 0 2.875 0 1.4375 1.4375 0 1 0 -2.875 0" fill="none" stroke="#ffffff" stroke-linecap="round" stroke-linejoin="round" stroke-width="1"></path><path d="M6.229166666666667 12.697916666666668V7.1875a0.9583333333333334 0.9583333333333334 0 0 1 0.6947916666666667 -0.9209583333333333l4.791666666666667 -1.3694583333333334a0.9583333333333334 0.9583333333333334 0 0 1 1.221875 0.9219166666666667v5.920583333333333" fill="none" stroke="#ffffff" stroke-linecap="round" stroke-linejoin="round" stroke-width="1"></path><path d="M15.8125 20.84375a2.875 2.875 0 0 1 -2.875 -2.875h0a2.875 2.875 0 0 1 2.875 -2.875h1.9166666666666667" fill="none" stroke="#ffffff" stroke-linecap="round" stroke-linejoin="round" stroke-width="1"></path><path d="M19.645833333333336 15.09375a2.875 2.875 0 0 1 2.875 2.875h0a2.875 2.875 0 0 1 -2.875 2.875h-1.9166666666666667" fill="none" stroke="#ffffff" stroke-linecap="round" stroke-linejoin="round" stroke-width="1"></path><path d="m16.291666666666668 13.65625 1.4375 1.4375 -1.4375 1.4375" fill="none" stroke="#ffffff" stroke-linecap="round" stroke-linejoin="round" stroke-width="1"></path><path d="m19.166666666666668 19.40625 -1.4375 1.4375 1.4375 1.4375" fill="none" stroke="#ffffff" stroke-linecap="round" stroke-linejoin="round" stroke-width="1"></path></svg>