<svg id="Light" xmlns="http://www.w3.org/2000/svg" viewBox="-0.5 -0.5 24 24"><defs></defs><title>pollution-co2</title><path d="M0.4791666666666667 11.5a11.020833333333334 11.020833333333334 0 1 0 22.041666666666668 0 11.020833333333334 11.020833333333334 0 1 0 -22.041666666666668 0" fill="none" stroke="#ffffff" stroke-linecap="round" stroke-linejoin="round" stroke-width="1"></path><path d="M14.854166666666668 10.541666666666668a1.9166666666666667 1.9166666666666667 0 0 1 -3.8333333333333335 0V6.708333333333334a1.9166666666666667 1.9166666666666667 0 1 1 3.8333333333333335 0Z" fill="none" stroke="#ffffff" stroke-linecap="round" stroke-linejoin="round" stroke-width="1"></path><path d="M9.181791666666667 12.458333333333334a3.8333333333333335 3.8333333333333335 0 1 1 0 -7.666666666666667" fill="none" stroke="#ffffff" stroke-linecap="round" stroke-linejoin="round" stroke-width="1"></path><path d="M15.496250000000002 13.889125000000002a1.3924583333333334 1.3924583333333334 0 0 1 1.3205833333333332 -0.951625h0A1.3915 1.3915 0 0 1 18.208333333333336 14.329958333333334h0a1.2659583333333333 1.2659583333333333 0 0 1 -0.370875 0.8950833333333335L15.333333333333334 17.729166666666668h2.875" fill="none" stroke="#ffffff" stroke-linecap="round" stroke-linejoin="round" stroke-width="1"></path></svg>