<svg xmlns="http://www.w3.org/2000/svg" fill="none" viewBox="-0.5 -0.5 24 24"><path stroke="#ffffff" d="M18.6875 12.697916666666668a0.23958333333333334 0.23958333333333334 0 1 1 0 -0.4791666666666667" stroke-width="1"></path><path stroke="#ffffff" d="M18.6875 12.697916666666668a0.23958333333333334 0.23958333333333334 0 1 0 0 -0.4791666666666667" stroke-width="1"></path><path stroke="#ffffff" stroke-linecap="round" stroke-linejoin="round" d="M6.229166666666667 7.1875h10.541666666666668" stroke-width="1"></path><path stroke="#ffffff" stroke-linecap="round" stroke-linejoin="round" d="M15.8125 7.1875h-8.625v-6.708333333333334h6.708333333333334l1.9166666666666667 1.9166666666666667v4.791666666666667Z" stroke-width="1"></path><path stroke="#ffffff" stroke-linecap="round" stroke-linejoin="round" d="M5.989583333333334 17.729166666666668H2.3958333333333335a0.9583333333333334 0.9583333333333334 0 0 1 -0.9583333333333334 -0.9583333333333334v-5.75a0.9583333333333334 0.9583333333333334 0 0 1 0.9583333333333334 -0.9583333333333334h18.208333333333336a0.9583333333333334 0.9583333333333334 0 0 1 0.9583333333333334 0.9583333333333334v5.75a0.9583333333333334 0.9583333333333334 0 0 1 -0.9583333333333334 0.9583333333333334h-4.072916666666667" stroke-width="1"></path><path stroke="#ffffff" stroke-linecap="round" stroke-linejoin="round" d="m1.5141666666666669 10.6375 1.9166666666666667 -4.791666666666667a0.9583333333333334 0.9583333333333334 0 0 1 0.8816666666666667 -0.575h2.875" stroke-width="1"></path><path stroke="#ffffff" stroke-linecap="round" stroke-linejoin="round" d="m21.485833333333336 10.6375 -1.9166666666666667 -4.791666666666667a0.9583333333333334 0.9583333333333334 0 0 0 -0.8912500000000001 -0.60375h-2.875" stroke-width="1"></path><path stroke="#ffffff" stroke-linecap="round" stroke-linejoin="round" d="M6.708333333333334 14.854166666666668h9.104166666666668l1.9166666666666667 7.666666666666667H4.791666666666667l1.9166666666666667 -7.666666666666667Z" stroke-width="1"></path><path stroke="#ffffff" stroke-linecap="round" stroke-linejoin="round" d="M18.6875 12.21875a0.23958333333333334 0.23958333333333334 0 0 1 0.04695833333333334 0.474375 0.23958333333333334 0.23958333333333334 0 0 1 -0.28654166666666664 -0.23479166666666668 0.23958333333333334 0.23958333333333334 0 0 1 0.23958333333333334 -0.23958333333333334Z" stroke-width="1"></path><path stroke="#ffffff" stroke-linecap="round" stroke-linejoin="round" d="M18.6875 14.614583333333334a0.23958333333333334 0.23958333333333334 0 0 1 0.04695833333333334 0.474375 0.23958333333333334 0.23958333333333334 0 0 1 -0.28654166666666664 -0.23479166666666668 0.23958333333333334 0.23958333333333334 0 0 1 0.23958333333333334 -0.23958333333333334Z" stroke-width="1"></path><path stroke="#ffffff" stroke-linecap="round" stroke-linejoin="round" d="M11.020833333333334 16.770833333333336H13.416666666666668" stroke-width="1"></path><path stroke="#ffffff" stroke-linecap="round" stroke-linejoin="round" d="M8.145833333333334 18.6875h5.75" stroke-width="1"></path><path stroke="#ffffff" stroke-linecap="round" stroke-linejoin="round" d="M7.1875 20.604166666666668H14.375" stroke-width="1"></path><g><path stroke="#ffffff" d="M18.6875 15.09375a0.23958333333333334 0.23958333333333334 0 1 1 0 -0.4791666666666667" stroke-width="1"></path><path stroke="#ffffff" d="M18.6875 15.09375a0.23958333333333334 0.23958333333333334 0 1 0 0 -0.4791666666666667" stroke-width="1"></path></g></svg>