<svg xmlns="http://www.w3.org/2000/svg" viewBox="-0.5 -0.5 24 24"><defs></defs><title>radio-antenna-2</title><path d="M0.4791666666666667 12.9375h22.041666666666668l0 0v8.625a0.9583333333333334 0.9583333333333334 0 0 1 -0.9583333333333334 0.9583333333333334h-20.125a0.9583333333333334 0.9583333333333334 0 0 1 -0.9583333333333334 -0.9583333333333334v-8.625l0 0Z" fill="none" stroke="#ffffff" stroke-linecap="round" stroke-linejoin="round" stroke-width="1"></path><path d="M2.3958333333333335 17.729166666666668a2.875 2.875 0 1 0 5.75 0 2.875 2.875 0 1 0 -5.75 0" fill="none" stroke="#ffffff" stroke-linecap="round" stroke-linejoin="round" stroke-width="1"></path><path d="M14.854166666666668 17.729166666666668a2.875 2.875 0 1 0 5.75 0 2.875 2.875 0 1 0 -5.75 0" fill="none" stroke="#ffffff" stroke-linecap="round" stroke-linejoin="round" stroke-width="1"></path><path d="M13.033333333333333 18.6875a4.760041666666666 4.760041666666666 0 0 1 0.30762500000000004 -2.875h-3.682875a4.760041666666666 4.760041666666666 0 0 1 0.30762500000000004 2.875Z" fill="none" stroke="#ffffff" stroke-linecap="round" stroke-linejoin="round" stroke-width="1"></path><path d="M22.520833333333336 10.0625a0.9583333333333334 0.9583333333333334 0 0 0 -0.9583333333333334 -0.9583333333333334h-20.125a0.9583333333333334 0.9583333333333334 0 0 0 -0.9583333333333334 0.9583333333333334v2.875h22.041666666666668Z" fill="none" stroke="#ffffff" stroke-linecap="round" stroke-linejoin="round" stroke-width="1"></path><path d="m2.3958333333333335 11.020833333333334 12.458333333333334 0" fill="none" stroke="#ffffff" stroke-linecap="round" stroke-linejoin="round" stroke-width="1"></path><path d="m16.770833333333336 11.020833333333334 0 1.9166666666666667" fill="none" stroke="#ffffff" stroke-linecap="round" stroke-linejoin="round" stroke-width="1"></path><path d="m20.604166666666668 11.020833333333334 -1.9166666666666667 0" fill="none" stroke="#ffffff" stroke-linecap="round" stroke-linejoin="round" stroke-width="1"></path><path d="m3.354166666666667 9.104166666666668 0 -0.9583333333333334" fill="none" stroke="#ffffff" stroke-linecap="round" stroke-linejoin="round" stroke-width="1"></path><path d="m5.270833333333334 9.104166666666668 0 -0.9583333333333334" fill="none" stroke="#ffffff" stroke-linecap="round" stroke-linejoin="round" stroke-width="1"></path><path d="m7.1875 9.104166666666668 0 -0.9583333333333334" fill="none" stroke="#ffffff" stroke-linecap="round" stroke-linejoin="round" stroke-width="1"></path><path d="M20.604166666666668 8.145833333333334a0.9583333333333334 0.9583333333333334 0 0 0 -1.9166666666666667 0v0.9583333333333334h1.9166666666666667Z" fill="none" stroke="#ffffff" stroke-linecap="round" stroke-linejoin="round" stroke-width="1"></path><path d="M18.75554166666667 7.789333333333333 0.4791666666666667 0.4791666666666667" fill="none" stroke="#ffffff" stroke-linecap="round" stroke-linejoin="round" stroke-width="1"></path></svg>