<svg xmlns="http://www.w3.org/2000/svg" fill="none" viewBox="-0.5 -0.5 24 24"><path stroke="#ffffff" stroke-linecap="round" stroke-linejoin="round" d="M19.645833333333336 8.145833333333334h-16.291666666666668a2.875 2.875 0 0 0 -2.875 2.875v8.625a2.875 2.875 0 0 0 2.875 2.875h16.291666666666668a2.875 2.875 0 0 0 2.875 -2.875v-8.625a2.875 2.875 0 0 0 -2.875 -2.875Z" stroke-width="1"></path><path stroke="#ffffff" stroke-linecap="round" stroke-linejoin="round" d="M7.662833333333334 20.596500000000002a5.267 5.267 0 1 0 0 -10.534 5.267 5.267 0 0 0 0 10.534Z" stroke-width="1"></path><path stroke="#ffffff" stroke-linecap="round" stroke-linejoin="round" d="M7.0772916666666665 12.403708333333334h1.170125" stroke-width="1"></path><path stroke="#ffffff" stroke-linecap="round" stroke-linejoin="round" d="M8.247416666666666 18.25529166666667H7.0772916666666665" stroke-width="1"></path><path stroke="#ffffff" stroke-linecap="round" stroke-linejoin="round" d="m4.835750000000001 14.373083333333334 0.5855416666666666 -1.0139166666666668" stroke-width="1"></path><path stroke="#ffffff" stroke-linecap="round" stroke-linejoin="round" d="m10.488958333333334 16.284958333333332 -0.5855416666666666 1.0139166666666668" stroke-width="1"></path><path stroke="#ffffff" stroke-linecap="round" stroke-linejoin="round" d="m5.421291666666667 17.298875 -0.5855416666666666 -1.0139166666666668" stroke-width="1"></path><path stroke="#ffffff" stroke-linecap="round" stroke-linejoin="round" d="m9.903416666666667 13.359166666666667 0.5855416666666666 1.0139166666666668" stroke-width="1"></path><path stroke="#ffffff" stroke-linecap="round" stroke-linejoin="round" d="M19.645833333333336 8.145833333333334 0.4791666666666667 0.4791666666666667" stroke-width="1"></path><path stroke="#ffffff" stroke-linecap="round" stroke-linejoin="round" d="M19.645833333333336 19.637208333333334h-3.8333333333333335" stroke-width="1"></path><path stroke="#ffffff" stroke-linecap="round" stroke-linejoin="round" d="M19.645833333333336 17.720541666666666h-3.8333333333333335" stroke-width="1"></path><path stroke="#ffffff" stroke-linecap="round" stroke-linejoin="round" d="M19.645833333333336 15.803875h-3.8333333333333335" stroke-width="1"></path><path stroke="#ffffff" stroke-linecap="round" stroke-linejoin="round" d="M17.729166666666668 13.408041666666668a1.4375 1.4375 0 1 0 0 -2.875 1.4375 1.4375 0 0 0 0 2.875Z" stroke-width="1"></path><path stroke="#ffffff" d="M7.666666666666667 15.572916666666668a0.23958333333333334 0.23958333333333334 0 1 1 0 -0.4791666666666667" stroke-width="1"></path><path stroke="#ffffff" d="M7.666666666666667 15.572916666666668a0.23958333333333334 0.23958333333333334 0 1 0 0 -0.4791666666666667" stroke-width="1"></path></svg>