<svg xmlns="http://www.w3.org/2000/svg" viewBox="-0.5 -0.5 24 24"><defs></defs><title>time-stopwatch</title><path d="m10.086458333333335 0.4820416666666667 1.9166666666666667 0" fill="none" stroke="#ffffff" stroke-linecap="round" stroke-linejoin="round" stroke-width="1"></path><path d="m11.044791666666667 0.4820416666666667 0 2.875" fill="none" stroke="#ffffff" stroke-linecap="round" stroke-linejoin="round" stroke-width="1"></path><path d="m18.711458333333333 3.357041666666667 1.4375 1.4375" fill="none" stroke="#ffffff" stroke-linecap="round" stroke-linejoin="round" stroke-width="1"></path><path d="m19.430208333333333 4.075791666666667 -1.8524583333333335 1.8534166666666667" fill="none" stroke="#ffffff" stroke-linecap="round" stroke-linejoin="round" stroke-width="1"></path><path d="m4.336458333333334 12.940375000000001 1.9166666666666667 0" fill="none" stroke="#ffffff" stroke-linecap="round" stroke-linejoin="round" stroke-width="1"></path><path d="m6.253125000000001 8.148708333333333 1.4375 1.4375" fill="none" stroke="#ffffff" stroke-linecap="round" stroke-linejoin="round" stroke-width="1"></path><path d="m6.253125000000001 17.732041666666667 1.4375 -1.4375" fill="none" stroke="#ffffff" stroke-linecap="round" stroke-linejoin="round" stroke-width="1"></path><path d="m17.753125 12.940375000000001 -1.9166666666666667 0" fill="none" stroke="#ffffff" stroke-linecap="round" stroke-linejoin="round" stroke-width="1"></path><path d="m11.044791666666667 19.648708333333335 0 -1.9166666666666667" fill="none" stroke="#ffffff" stroke-linecap="round" stroke-linejoin="round" stroke-width="1"></path><path d="m11.044791666666667 6.232041666666667 0 1.9166666666666667" fill="none" stroke="#ffffff" stroke-linecap="round" stroke-linejoin="round" stroke-width="1"></path><path d="m15.836458333333333 17.732041666666667 -1.4375 -1.4375" fill="none" stroke="#ffffff" stroke-linecap="round" stroke-linejoin="round" stroke-width="1"></path><path d="m15.836458333333333 8.148708333333333 -1.4375 1.4375" fill="none" stroke="#ffffff" stroke-linecap="round" stroke-linejoin="round" stroke-width="1"></path><path d="M1.4614583333333333 12.940375000000001a9.583333333333334 9.583333333333334 0 1 0 19.166666666666668 0 9.583333333333334 9.583333333333334 0 1 0 -19.166666666666668 0" fill="none" stroke="#ffffff" stroke-linecap="round" stroke-linejoin="round" stroke-width="1"></path></svg>