<svg xmlns="http://www.w3.org/2000/svg" viewBox="-0.5 -0.5 24 24"><defs></defs><title>volume-control-full</title><path d="M5.270833333333334 8.625H1.9166666666666667a1.4375 1.4375 0 0 0 -1.4375 1.4375v2.875A1.4375 1.4375 0 0 0 1.9166666666666667 14.375h3.354166666666667l5.890875 5.889916666666667a0.4791666666666667 0.4791666666666667 0 0 0 0.8174583333333334 -0.33829166666666666V3.073375a0.4791666666666667 0.4791666666666667 0 0 0 -0.8174583333333334 -0.33829166666666666Z" fill="none" stroke="#ffffff" stroke-linecap="round" stroke-linejoin="round" stroke-width="1"></path><path d="M19.166666666666668 3.8333333333333335a10.439125 10.439125 0 0 1 0 15.333333333333334" fill="none" stroke="#ffffff" stroke-linecap="round" stroke-linejoin="round" stroke-width="1"></path><path d="M16.770833333333336 5.75a7.221041666666667 7.221041666666667 0 0 1 0 11.5" fill="none" stroke="#ffffff" stroke-linecap="round" stroke-linejoin="round" stroke-width="1"></path><path d="M14.854166666666668 8.145833333333334c2.5654583333333334 1.8658750000000002 2.5577916666666667 4.849166666666666 0 6.708333333333334" fill="none" stroke="#ffffff" stroke-linecap="round" stroke-linejoin="round" stroke-width="1"></path></svg>