<svg xmlns="http://www.w3.org/2000/svg" viewBox="-0.5 -0.5 24 24"><defs></defs><title>volume-control-settings</title><path d="M11.979166666666668 9.870833333333334V1.8754583333333334a0.9583333333333334 0.9583333333333334 0 0 0 -1.6358750000000002 -0.6775416666666667L5.270833333333334 6.2703750000000005H1.9166666666666667a1.4375 1.4375 0 0 0 -1.4375 1.4375v2.875a1.4375 1.4375 0 0 0 1.4375 1.4375h3.354166666666667l3.8333333333333335 3.8333333333333335" fill="none" stroke="#ffffff" stroke-linecap="round" stroke-linejoin="round" stroke-width="1"></path><path d="M14.763125 8.462083333333334a2.8692500000000005 2.8692500000000005 0 0 0 -2.779166666666667 -2.191708333333333" fill="none" stroke="#ffffff" stroke-linecap="round" stroke-linejoin="round" stroke-width="1"></path><path d="M15.633291666666667 15.404250000000003a1.3771250000000002 1.3771250000000002 0 1 0 2.7542500000000003 0 1.3771250000000002 1.3771250000000002 0 1 0 -2.7542500000000003 0" fill="none" stroke="#ffffff" stroke-linecap="round" stroke-linejoin="round" stroke-width="1"></path><path d="m18.180541666666667 10.074958333333333 0.4063333333333333 1.3339999999999999a0.911375 0.911375 0 0 0 1.0771666666666668 0.6257916666666667l1.3531666666666666 -0.313375a1.2295416666666665 1.2295416666666665 0 0 1 1.170125 2.0374166666666667l-0.9468333333333333 1.020625a0.92 0.92 0 0 0 0 1.2458333333333333l0.9468333333333333 1.020625a1.2285833333333334 1.2285833333333334 0 0 1 -1.170125 2.0364583333333335l-1.3531666666666666 -0.313375a0.911375 0.911375 0 0 0 -1.0771666666666668 0.6257916666666667l-0.4063333333333333 1.3339999999999999a1.221875 1.221875 0 0 1 -2.34025 0l-0.4063333333333333 -1.3339999999999999a0.911375 0.911375 0 0 0 -1.0771666666666668 -0.6257916666666667l-1.3531666666666666 0.313375a1.2285833333333334 1.2285833333333334 0 0 1 -1.170125 -2.0364583333333335l0.9468333333333333 -1.020625a0.92 0.92 0 0 0 0 -1.2458333333333333l-0.9468333333333333 -1.020625a1.2295416666666665 1.2295416666666665 0 0 1 1.170125 -2.0374166666666667l1.3531666666666666 0.313375a0.911375 0.911375 0 0 0 1.0771666666666668 -0.6257916666666667l0.4063333333333333 -1.3339999999999999a1.221875 1.221875 0 0 1 2.34025 0Z" fill="none" stroke="#ffffff" stroke-linecap="round" stroke-linejoin="round" stroke-width="1"></path></svg>